<?xml version="1.0"?>
<svg xmlns="http://www.w3.org/2000/svg" viewBox="0 0 512 512" width="512" height="512"><g id="solid"><path d="M242.159,376,233.3,360h18.842L261,376Zm-17.716-32L160.859,229.151a79.3,79.3,0,0,1,14.4-8.029L243.285,344ZM131.211,207.634a102.481,102.481,0,0,1-12.669-45.112L117.3,132.956,141.7,149.7a102.484,102.484,0,0,1,31.507,34.683l9.587,17.316-.985.263a95.21,95.21,0,0,0-40.263,22.29l-.746.7Zm65.49-13.842-9.5-17.157a118.571,118.571,0,0,0-36.45-40.124l-10.921-7.5,18.027,2.231a102.329,102.329,0,0,1,71.89,44.008A94.651,94.651,0,0,0,196.7,193.792Zm82.333-58.311,9.69,6.651-4.669,1.486a95.474,95.474,0,0,0-35.93,21.024l-3.848,3.589a118.367,118.367,0,0,0-84.452-52.864l-12.109-1.5a155.887,155.887,0,0,1,131.318,21.612ZM37.823,279.94l-3.738,3.168-.493-11.742A156.024,156.024,0,0,1,85.4,148.21l-6.332,13.577a118.381,118.381,0,0,0-.813,97.919l-3.538.943A95.5,95.5,0,0,0,37.823,279.94Zm54.415-28.2a102.323,102.323,0,0,1,1.326-83.193l8.455-18.128.536,12.773a118.585,118.585,0,0,0,14.658,52.19l9.5,17.157A94.654,94.654,0,0,0,92.238,251.742ZM65.173,475.6A7.724,7.724,0,0,1,66,467.326l55.541-72.2A8.049,8.049,0,0,1,127.878,392H304a8,8,0,0,0,7.155-4.422l43.056-86.111A9.835,9.835,0,0,1,363.056,296a9.887,9.887,0,0,1,8.844,14.311l-46.633,93.266A7.956,7.956,0,0,1,318.111,408H136a8,8,0,0,0-6.315,3.089L78.451,476.962A7.828,7.828,0,0,1,72.236,480,7.724,7.724,0,0,1,65.173,475.6ZM347.845,480l-29.6-37A8,8,0,0,0,312,440H152a8,8,0,0,0-6.247,3l-29.6,37h-19.8l43.556-56H324.087l43.556,56Z"/><path d="M464,392l8-56h-8V323.313l5.657-5.656a8,8,0,0,0-11.314-11.314l-8,8A8,8,0,0,0,448,320v16H424l8,56Z"/><path d="M487.81,486.265l-13.891-62.507A8,8,0,0,0,472,408H424a8,8,0,0,0-1.919,15.758L408.19,486.265a8,8,0,0,0,15.62,3.47L427.751,472h40.5l3.941,17.735a8,8,0,0,0,15.62-3.47ZM431.306,456l7.111-32h19.166l7.111,32Z"/></g></svg>
