<?xml version="1.0" encoding="UTF-8" standalone="no"?>
<!-- Generator: Adobe Illustrator 19.0.0, SVG Export Plug-In . SVG Version: 6.00 Build 0)  -->

<svg
   xmlns:dc="http://purl.org/dc/elements/1.1/"
   xmlns:cc="http://creativecommons.org/ns#"
   xmlns:rdf="http://www.w3.org/1999/02/22-rdf-syntax-ns#"
   xmlns:svg="http://www.w3.org/2000/svg"
   xmlns="http://www.w3.org/2000/svg"
   xmlns:sodipodi="http://sodipodi.sourceforge.net/DTD/sodipodi-0.dtd"
   xmlns:inkscape="http://www.inkscape.org/namespaces/inkscape"
   version="1.1"
   id="Layer_1"
   x="0px"
   y="0px"
   viewBox="0 0 512 512"
   style="enable-background:new 0 0 512 512;"
   xml:space="preserve"
   width="512"
   height="512"
   sodipodi:docname="time.svg"
   inkscape:version="0.92.5 (2060ec1f9f, 2020-04-08)"
   inkscape:export-filename="C:\Users\Tomas\JsProjects\public_html\wp-content\themes\passive\images\icons\time.png"
   inkscape:export-xdpi="96"
   inkscape:export-ydpi="96"><metadata
   id="metadata19"><rdf:RDF><cc:Work
       rdf:about=""><dc:format>image/svg+xml</dc:format><dc:type
         rdf:resource="http://purl.org/dc/dcmitype/StillImage" /></cc:Work></rdf:RDF></metadata><defs
   id="defs17" /><sodipodi:namedview
   pagecolor="#ffffff"
   bordercolor="#666666"
   borderopacity="1"
   objecttolerance="10"
   gridtolerance="10"
   guidetolerance="10"
   inkscape:pageopacity="0"
   inkscape:pageshadow="2"
   inkscape:window-width="1920"
   inkscape:window-height="1027"
   id="namedview15"
   showgrid="false"
   inkscape:zoom="0.921875"
   inkscape:cx="164.40551"
   inkscape:cy="231.88327"
   inkscape:window-x="-8"
   inkscape:window-y="-8"
   inkscape:window-maximized="1"
   inkscape:current-layer="XMLID_2038_" />
<g
   id="XMLID_2048_">
	<g
   id="XMLID_2036_">
		<g
   id="XMLID_2037_">
			<g
   id="XMLID_2038_">
				<path
   id="XMLID_2047_"
   d="M 461.503,492 H 256.084 c -130.131,0 -236,-105.869 -236,-236 0,-130.131 105.869,-236 236,-236 51.219,0 100.463,16.477 141.053,46.789 h -10.975 c -5.522,0 -10,4.478 -10,10 0,5.522 4.478,10 10,10 h 37.974 c 5.522,0 10,-4.478 10,-10 V 38.815 c 0,-5.522 -4.478,-10 -10,-10 -5.522,0 -10,4.478 -10,10 V 54.62 C 369.173,19.274 313.782,0 256.084,0 187.704,0 123.417,26.629 75.064,74.98 26.713,123.333 0.084,187.62 0.084,256 c 0,68.38 26.629,132.667 74.98,181.02 48.353,48.352 112.64,74.98 181.02,74.98 h 205.419 c 5.522,0 10,-4.478 10,-10 0,-5.522 -4.478,-10 -10,-10 z"
   inkscape:connector-curvature="0" />
				<path
   id="XMLID_2046_"
   d="m 108.278,151.21 c -4.671,-2.945 -10.847,-1.544 -13.792,3.128 -22.702,36.018 -32.722,79.301 -28.211,121.878 4.577,43.215 24.053,83.969 54.838,114.755 37.212,37.211 86.091,55.816 134.971,55.816 48.88,0 97.759,-18.605 134.971,-55.816 74.422,-74.423 74.422,-195.519 0,-269.941 -30.834,-30.833 -71.654,-50.315 -114.94,-54.857 -42.654,-4.479 -85.988,5.624 -122.02,28.438 -4.666,2.955 -6.054,9.133 -3.1,13.799 2.955,4.666 9.133,6.053 13.799,3.1 66.86,-42.335 156.071,-32.383 212.118,23.664 66.624,66.625 66.624,175.031 0,241.656 -33.316,33.316 -77.064,49.973 -120.828,49.969 -43.753,-0.005 -87.52,-16.66 -120.828,-49.969 -56.833,-56.833 -66.64,-143.939 -23.85,-211.826 2.945,-4.674 1.545,-10.849 -3.128,-13.794 z"
   inkscape:connector-curvature="0" />
				
				
				
				
				<path
   id="XMLID_2040_"
   d="m 128.189,118.1 c -2.64,0 -5.22,1.07 -7.08,2.931 -1.859,1.859 -2.93,4.439 -2.93,7.069 0,2.63 1.07,5.21 2.93,7.07 1.86,1.86 4.44,2.93 7.08,2.93 2.63,0 5.21,-1.069 7.07,-2.93 1.86,-1.861 2.92,-4.44 2.92,-7.07 0,-2.63 -1.06,-5.21 -2.92,-7.069 -1.86,-1.861 -4.44,-2.931 -7.07,-2.931 z"
   inkscape:connector-curvature="0" />
				<path
   id="XMLID_2039_"
   d="m 501.916,492 h -0.135 c -5.522,0 -10,4.478 -10,10 0,5.522 4.478,10 10,10 h 0.135 c 5.522,0 10,-4.478 10,-10 0,-5.522 -4.478,-10 -10,-10 z"
   inkscape:connector-curvature="0" />
			<flowRoot
   xml:space="preserve"
   id="flowRoot826"
   style="font-style:normal;font-variant:normal;font-weight:bold;font-stretch:normal;font-size:53.33351517px;line-height:1.25;font-family:'Segoe Print';-inkscape-font-specification:'Segoe Print, Bold';font-variant-ligatures:normal;font-variant-caps:normal;font-variant-numeric:normal;font-feature-settings:normal;text-align:start;letter-spacing:0px;word-spacing:0px;writing-mode:lr-tb;text-anchor:start;fill:#000000;fill-opacity:1;stroke:none"
   transform="matrix(1.9531643,0,0,2.7334884,-133.84712,-323.79382)"><flowRegion
     id="flowRegion828"
     style="font-style:normal;font-variant:normal;font-weight:bold;font-stretch:normal;font-size:53.33351517px;font-family:'Segoe Print';-inkscape-font-specification:'Segoe Print, Bold';font-variant-ligatures:normal;font-variant-caps:normal;font-variant-numeric:normal;font-feature-settings:normal;text-align:start;writing-mode:lr-tb;text-anchor:start"><rect
       id="rect830"
       width="267.93219"
       height="129.62712"
       x="126.91525"
       y="184.40678"
       style="font-style:normal;font-variant:normal;font-weight:bold;font-stretch:normal;font-size:53.33351517px;font-family:'Segoe Print';-inkscape-font-specification:'Segoe Print, Bold';font-variant-ligatures:normal;font-variant-caps:normal;font-variant-numeric:normal;font-feature-settings:normal;text-align:start;writing-mode:lr-tb;text-anchor:start" /></flowRegion><flowPara
     id="flowPara832"
     style="font-style:normal;font-variant:normal;font-weight:bold;font-stretch:normal;font-size:53.33351517px;font-family:'Segoe Print';-inkscape-font-specification:'Segoe Print, Bold';font-variant-ligatures:normal;font-variant-caps:normal;font-variant-numeric:normal;font-feature-settings:normal;text-align:start;writing-mode:lr-tb;text-anchor:start">24/7</flowPara></flowRoot></g>
		</g>
	</g>
</g>















</svg>