<?xml version="1.0" encoding="iso-8859-1"?>
<!-- Generator: Adobe Illustrator 19.0.0, SVG Export Plug-In . SVG Version: 6.00 Build 0)  -->
<svg xmlns="http://www.w3.org/2000/svg" xmlns:xlink="http://www.w3.org/1999/xlink" version="1.1" id="Layer_1" x="0px" y="0px" viewBox="0 0 512 512" style="enable-background:new 0 0 512 512;" xml:space="preserve" width="512" height="512">
<g id="XMLID_2048_">
	<g id="XMLID_2036_">
		<g id="XMLID_2037_">
			<g id="XMLID_2038_">
				<path id="XMLID_2047_" d="M461.503,492H256.084c-130.131,0-236-105.869-236-236s105.869-236,236-236      c51.219,0,100.463,16.477,141.053,46.789h-10.975c-5.522,0-10,4.478-10,10s4.478,10,10,10h37.974c5.522,0,10-4.478,10-10V38.815      c0-5.522-4.478-10-10-10s-10,4.478-10,10V54.62C369.173,19.274,313.782,0,256.084,0c-68.38,0-132.667,26.629-181.02,74.98      C26.713,123.333,0.084,187.62,0.084,256s26.629,132.667,74.98,181.02c48.353,48.352,112.64,74.98,181.02,74.98h205.419      c5.522,0,10-4.478,10-10S467.025,492,461.503,492z"/>
				<path id="XMLID_2046_" d="M108.278,151.21c-4.671-2.945-10.847-1.544-13.792,3.128c-22.702,36.018-32.722,79.301-28.211,121.878      c4.577,43.215,24.053,83.969,54.838,114.755c37.212,37.211,86.091,55.816,134.971,55.816s97.759-18.605,134.971-55.816      c74.422-74.423,74.422-195.519,0-269.941c-30.834-30.833-71.654-50.315-114.94-54.857c-42.654-4.479-85.988,5.624-122.02,28.438      c-4.666,2.955-6.054,9.133-3.1,13.799c2.955,4.666,9.133,6.053,13.799,3.1c66.86-42.335,156.071-32.383,212.118,23.664      c66.624,66.625,66.624,175.031,0,241.656c-33.316,33.316-77.064,49.973-120.828,49.969      c-43.753-0.005-87.52-16.66-120.828-49.969c-56.833-56.833-66.64-143.939-23.85-211.826      C114.351,160.33,112.951,154.155,108.278,151.21z"/>
				<path id="XMLID_2045_" d="M149.374,210.024c-15.962,0-28.947,12.985-28.947,28.947c0,5.522,4.478,10,10,10s10-4.478,10-10      c0-4.934,4.014-8.947,8.947-8.947c7.885,0,8.948,4.522,8.948,8.947c0,14.462-20.748,35.161-33.819,44.806      c-3.481,2.561-4.925,7.067-3.578,11.174c1.348,4.106,5.181,6.883,9.502,6.883h37.896c5.522,0,10-4.478,10-10s-4.478-10-10-10      h-11.781c10.788-11.495,21.781-27.08,21.781-42.862C178.322,221.657,166.688,210.024,149.374,210.024z"/>
				<path id="XMLID_2044_" d="M199.392,210.024c-5.522,0-10,4.478-10,10v35.936c0,5.522,4.478,10,10,10h24.491v26.016      c0,5.522,4.478,10,10,10s10-4.478,10-10v-71.951c0-5.522-4.478-10-10-10s-10,4.478-10,10v25.936h-14.491v-25.936      C209.392,214.502,204.914,210.024,199.392,210.024z"/>
				<path id="XMLID_2043_" d="M275.153,301.836c3.798,0,7.429-2.175,9.106-5.856l32.711-71.81c2.289-5.026,0.07-10.956-4.955-13.246      c-5.028-2.29-10.955-0.071-13.246,4.955l-32.711,71.81c-2.289,5.026-0.07,10.956,4.955,13.246      C272.358,301.547,273.767,301.836,275.153,301.836z"/>
				<path id="XMLID_2042_" d="M357.325,301.412c0.958,0.288,1.926,0.425,2.877,0.425c4.302,0,8.274-2.798,9.574-7.13l21.543-71.81      c0.908-3.027,0.332-6.307-1.556-8.843c-1.887-2.536-4.861-4.03-8.022-4.03h-43.086c-5.522,0-10,4.478-10,10s4.478,10,10,10      h29.646l-17.681,58.937C349.033,294.25,352.035,299.825,357.325,301.412z"/>
				<path id="XMLID_2040_" d="M128.189,118.1c-2.64,0-5.22,1.07-7.08,2.931c-1.859,1.859-2.93,4.439-2.93,7.069s1.07,5.21,2.93,7.07      c1.86,1.86,4.44,2.93,7.08,2.93c2.63,0,5.21-1.069,7.07-2.93s2.92-4.44,2.92-7.07s-1.06-5.21-2.92-7.069      C133.399,119.17,130.819,118.1,128.189,118.1z"/>
				<path id="XMLID_2039_" d="M501.916,492h-0.135c-5.522,0-10,4.478-10,10s4.478,10,10,10h0.135c5.522,0,10-4.478,10-10      S507.438,492,501.916,492z"/>
			</g>
		</g>
	</g>
</g>















</svg>
