<?xml version="1.0" encoding="UTF-8" standalone="no"?>
<!-- Generator: Adobe Illustrator 16.0.0, SVG Export Plug-In . SVG Version: 6.00 Build 0)  -->

<svg
   xmlns:dc="http://purl.org/dc/elements/1.1/"
   xmlns:cc="http://creativecommons.org/ns#"
   xmlns:rdf="http://www.w3.org/1999/02/22-rdf-syntax-ns#"
   xmlns:svg="http://www.w3.org/2000/svg"
   xmlns="http://www.w3.org/2000/svg"
   xmlns:sodipodi="http://sodipodi.sourceforge.net/DTD/sodipodi-0.dtd"
   xmlns:inkscape="http://www.inkscape.org/namespaces/inkscape"
   version="1.1"
   id="Capa_1"
   x="0px"
   y="0px"
   width="1000.816"
   height="408.81601"
   viewBox="0 0 1000.816 408.816"
   xml:space="preserve"
   sodipodi:docname="up_to.svg"
   inkscape:version="0.92.5 (2060ec1f9f, 2020-04-08)"><metadata
   id="metadata906"><rdf:RDF><cc:Work
       rdf:about=""><dc:format>image/svg+xml</dc:format><dc:type
         rdf:resource="http://purl.org/dc/dcmitype/StillImage" /><dc:title></dc:title></cc:Work></rdf:RDF></metadata><defs
   id="defs904" /><sodipodi:namedview
   pagecolor="#ffffff"
   bordercolor="#666666"
   borderopacity="1"
   objecttolerance="10"
   gridtolerance="10"
   guidetolerance="10"
   inkscape:pageopacity="0"
   inkscape:pageshadow="2"
   inkscape:window-width="1920"
   inkscape:window-height="1027"
   id="namedview902"
   showgrid="false"
   inkscape:zoom="0.26234296"
   inkscape:cx="-868.79492"
   inkscape:cy="235.2337"
   inkscape:window-x="-8"
   inkscape:window-y="-8"
   inkscape:window-maximized="1"
   inkscape:current-layer="Capa_1" />
<g
   id="g869">
	<path
   d="M 365.552,217.26 C 324.548,162.792 284.768,107.712 243.152,53.244 230.911,37.332 216.835,1.224 195.416,0 c -1.224,0 -1.836,1.224 -1.836,1.836 0,0.612 0.612,1.224 0.612,1.836 0,0.612 -0.612,0.612 -0.612,1.224 -0.612,0 -1.224,0 -1.224,0.612 -33.048,18.36 -55.692,61.2 -74.664,92.412 -26.316,42.84 -52.632,86.292 -75.888,130.356 -0.612,1.836 -0.612,3.06 0,4.284 -0.612,3.06 0.612,6.731 4.896,6.731 23.868,1.836 54.468,7.344 79.56,2.448 -4.896,10.404 -4.896,23.256 -7.344,33.66 -10.404,38.556 -29.376,73.439 -36.108,113.22 -0.612,1.836 0,3.672 0.612,4.896 -3.06,3.06 -1.836,8.567 3.672,9.18 46.512,3.06 93.024,5.508 139.536,5.508 24.48,0 86.292,5.508 104.652,-16.523 3.061,-3.673 1.224,-9.181 -3.06,-9.792 0,-0.612 -0.612,-1.225 -0.612,-1.837 -25.092,-45.899 -53.244,-93.636 -63.648,-145.655 20.196,1.836 40.393,1.836 60.589,1.836 9.792,0 29.987,1.836 36.107,-7.956 4.283,0 9.791,-5.507 4.896,-11.016 z m -47.737,3.672 c -19.584,0.612 -39.168,-1.224 -58.752,0.612 -3.672,0 -5.508,2.448 -6.12,4.896 -1.836,0.611 -3.06,2.447 -3.06,4.896 3.06,53.856 33.659,105.876 59.363,152.389 -8.567,1.836 -16.523,4.283 -24.479,5.508 -22.032,2.447 -44.676,3.06 -67.32,3.06 -39.78,0.612 -80.172,-1.836 -119.952,0 9.18,-38.556 23.256,-74.664 36.72,-111.996 3.672,-10.403 7.344,-28.151 6.732,-38.556 0,-0.612 0,-1.224 0,-1.836 0,-0.612 0,-0.612 0,-1.225 0.612,-0.611 1.836,-0.611 2.448,-1.224 6.12,-3.06 2.448,-11.628 -3.06,-12.24 -15.3,-0.611 -31.212,2.448 -46.512,3.061 -12.24,0.611 -24.48,0.611 -37.332,0.611 25.092,-28.764 42.84,-65.483 61.812,-98.532 23.868,-41.616 50.796,-76.5 82.008,-111.996 1.224,1.224 1.836,2.448 2.448,3.672 8.568,13.464 17.136,26.928 26.928,39.78 39.168,52.02 77.724,104.652 116.892,156.672 -9.792,0 -20.808,2.448 -28.764,2.448 z"
   id="path867"
   inkscape:connector-curvature="0" />
</g>
<g
   id="g871">
</g>
<g
   id="g873">
</g>
<g
   id="g875">
</g>
<g
   id="g877">
</g>
<g
   id="g879">
</g>
<g
   id="g881">
</g>
<g
   id="g883">
</g>
<g
   id="g885">
</g>
<g
   id="g887">
</g>
<g
   id="g889">
</g>
<g
   id="g891">
</g>
<g
   id="g893">
</g>
<g
   id="g895">
</g>
<g
   id="g897">
</g>
<g
   id="g899">
</g>
<flowRoot
   xml:space="preserve"
   id="flowRoot908"
   style="font-style:normal;font-variant:normal;font-weight:normal;font-stretch:normal;font-size:192px;line-height:1.25;font-family:'Segoe Print';-inkscape-font-specification:'Segoe Print';letter-spacing:0px;word-spacing:0px;fill:#000000;fill-opacity:1;stroke:none"
   transform="matrix(1.5738479,0,0,1.6686894,-101.58005,-28.904947)"><flowRegion
     id="flowRegion910"
     style="font-style:normal;font-variant:normal;font-weight:normal;font-stretch:normal;font-size:192px;font-family:'Segoe Print';-inkscape-font-specification:'Segoe Print'"><rect
       id="rect912"
       width="787.82819"
       height="496.97751"
       x="308.75613"
       y="75.283134"
       style="font-style:normal;font-variant:normal;font-weight:normal;font-stretch:normal;font-size:192px;font-family:'Segoe Print';-inkscape-font-specification:'Segoe Print'" /></flowRegion><flowPara
     id="flowPara914"
     style="font-style:normal;font-variant:normal;font-weight:normal;font-stretch:normal;font-family:'Segoe Print';-inkscape-font-specification:'Segoe Print'">30<flowSpan
   style="font-size:139.41798401px"
   id="flowSpan1607">%</flowSpan></flowPara><flowPara
     style="font-style:normal;font-variant:normal;font-weight:normal;font-stretch:normal;font-family:'Segoe Print';-inkscape-font-specification:'Segoe Print'"
     id="flowPara1605" /></flowRoot><flowRoot
   xml:space="preserve"
   id="flowRoot924"
   style="font-style:normal;font-variant:normal;font-weight:normal;font-stretch:normal;font-size:40px;line-height:1.25;font-family:'Ink Free';-inkscape-font-specification:'Ink Free';letter-spacing:0px;word-spacing:0px;fill:#000000;fill-opacity:1;stroke:none"><flowRegion
     id="flowRegion926"
     style="font-style:normal;font-variant:normal;font-weight:normal;font-stretch:normal;font-family:'Ink Free';-inkscape-font-specification:'Ink Free'"><rect
       id="rect928"
       width="708.99561"
       height="425.01617"
       x="5.7177062"
       y="-12.388364"
       style="font-style:normal;font-variant:normal;font-weight:normal;font-stretch:normal;font-family:'Ink Free';-inkscape-font-specification:'Ink Free'" /></flowRegion><flowPara
     id="flowPara930"></flowPara></flowRoot><flowRoot
   xml:space="preserve"
   id="flowRoot932"
   style="font-style:normal;font-weight:normal;font-size:40px;line-height:1.25;font-family:sans-serif;letter-spacing:0px;word-spacing:0px;fill:#000000;fill-opacity:1;stroke:none"><flowRegion
     id="flowRegion934"><rect
       id="rect936"
       width="27.635582"
       height="151.51923"
       x="425.01617"
       y="-24.776728" /></flowRegion><flowPara
     id="flowPara938"></flowPara></flowRoot><flowRoot
   xml:space="preserve"
   id="flowRoot940"
   style="font-style:normal;font-weight:normal;font-size:40px;line-height:1.25;font-family:sans-serif;letter-spacing:0px;word-spacing:0px;fill:#000000;fill-opacity:1;stroke:none"><flowRegion
     id="flowRegion942"><rect
       id="rect944"
       width="6.6706576"
       height="79.09494"
       x="452.65176"
       y="50.506409" /></flowRegion><flowPara
     id="flowPara946"></flowPara></flowRoot><flowRoot
   xml:space="preserve"
   id="flowRoot956"
   style="font-style:normal;font-weight:normal;font-size:40px;line-height:1.25;font-family:sans-serif;letter-spacing:0px;word-spacing:0px;fill:#000000;fill-opacity:1;stroke:none"><flowRegion
     id="flowRegion958"><rect
       id="rect960"
       width="40.976894"
       height="100.05986"
       x="542.22919"
       y="273.49695" /></flowRegion><flowPara
     id="flowPara962"></flowPara></flowRoot><flowRoot
   xml:space="preserve"
   id="flowRoot964"
   style="font-style:normal;font-weight:normal;font-size:40px;line-height:1.25;font-family:sans-serif;letter-spacing:0px;word-spacing:0px;fill:#000000;fill-opacity:1;stroke:none"><flowRegion
     id="flowRegion966"><rect
       id="rect968"
       width="145.80151"
       height="80.04789"
       x="555.5705"
       y="496.48752" /></flowRegion><flowPara
     id="flowPara970"></flowPara></flowRoot></svg>